<svg height="512pt" viewBox="-13 0 512 512.00049" width="512pt" xmlns="http://www.w3.org/2000/svg"><path d="m485.179688 418.859375c-.960938-15.882813-3.605469-31.328125-5.535157-43.328125-4.117187-25.59375-10.769531-50.90625-11.371093-76.953125-.3125-13.667969.410156-27.363281 1.550781-40.976563 1.320312-15.765624 3.140625-31.5625 5.800781-47.164062 11.53125-49.667969 2.367188-99.144531-34.667969-135.796875-12-11.875-25.394531-22.289063-39.722656-31.203125-26.636719-16.578125-56.367187-27.789062-86.875-34.808594-32.820313-7.554687-65.148437-8.800781-98.558594-8.6093748-55.050781.3124998-110.503906 16.6132808-152.890625 47.9882808-71.6875 53.070313-88.773437 167.195313-16.1875 226.765626 37.398438 30.691406 86.898438 51.527343 117.902344 89.394531 24.355469 29.746093 28.113281 62.636719 44.246094 96.078125 17.109375 35.464844 58.859375 53.179687 97.480468 51.015625 0 0 .097657.5625.101563.5625 27.394531.757812 54.941406-1.101563 82.292969-2.378907 37.621094-1.757812 82.589844-10.328124 93.242187-52.417968 3.128907-12.378906 3.960938-25.445313 3.191407-38.167969zm0 0" fill="#704138"/><path d="m481.992188 457.03125c-9.648438 38.101562-47.421876 48.738281-82.414063 51.703125 26.144531-6.160156 49.578125-19.71875 56.886719-49.585937 3.128906-12.8125 3.960937-26.328126 3.191406-39.5-.957031-16.433594-3.605469-32.414063-5.535156-44.835938-4.113282-26.484375-10.765625-52.679688-11.371094-79.632812-.308594-14.144532.410156-28.308594 1.550781-42.402344 1.320313-16.320313 3.140625-32.664063 5.808594-48.808594 11.527344-51.394531 2.359375-102.59375-34.675781-140.523438-11.996094-12.296874-25.394532-23.0625-39.722656-32.289062-3.214844-2.074219-6.476563-4.054688-9.78125-5.964844 12.203124 5.171875 24.039062 11.226563 35.308593 18.238282 14.320313 8.921874 27.714844 19.339843 39.714844 31.214843 37.042969 36.644531 46.199219 86.121094 34.671875 135.792969-2.65625 15.601562-4.484375 31.398438-5.796875 47.164062-1.148437 13.609376-1.867187 27.304688-1.550781 40.976563.59375 26.050781 7.246094 51.363281 11.363281 76.953125 1.941406 12 4.578125 27.445312 5.542969 43.328125.769531 12.726563-.0625 25.792969-3.191406 38.171875zm0 0" fill="#633029"/><path d="m46.722656 274.773438c37.398438 30.691406 86.898438 51.527343 117.902344 89.394531 24.355469 29.746093 28.113281 62.636719 44.246094 96.078125 22.824218 47.308594 89.496094 63.035156 134.09375 42.117187 46.160156-21.648437 76.871094-59.824219 68.949218-113.035156-9.15625-61.5-6.589843-119.085937 6.128907-181.414063 14.972656-73.402343-11.707031-140.59375-78.753907-178.007812-82.386718-45.976562-200.382812-38.152344-276.378906 18.101562-71.6875 53.070313-88.773437 167.195313-16.1875 226.765626zm0 0" fill="#d33737"/><path d="m418.039062 207.910156c-12.710937 62.332032-15.28125 119.917969-6.128906 181.417969 7.910156 53.101563-22.664062 91.234375-68.671875 112.90625 29.003907-22.453125 45.722657-54.464844 39.636719-95.332031-9.160156-61.507813-6.589844-119.082032 6.132812-181.414063 14.972657-73.40625-11.714843-140.589843-78.757812-178.007812-71.613281-39.964844-170.144531-39.273438-244.59375-1.460938 76.078125-54.445312 192.238281-61.542969 273.628906-16.117187 67.054688 37.417968 93.726563 104.605468 78.753906 178.007812zm0 0" fill="#c42626"/><path d="m182.9375 136.6875c-36.898438 15.398438-64.371094 37.496094-55.824219 58.09375 9.761719 23.507812 50.84375 10.554688 68.015625 21.566406 26.371094 16.910156 39.691406 74.738282 51.621094 105.023438 6.410156 16.277344 15.15625 74.949218 37.777344 73.265625 24.140625-1.796875 1.035156-76.320313-1.324219-94.789063-3.960937-31.019531-13.75-69.421875-3.828125-100.097656 8.324219-25.734375 63.773438-36.730469 39.242188-68.445312-18.578126-24.023438-85.753907-15.453126-135.679688 5.382812zm0 0" fill="#ffc1b8"/><path d="m279.382812 199.75c-9.933593 30.671875-.132812 69.078125 3.820313 100.101562 2.363281 18.464844 25.464844 92.988282 1.328125 94.78125-3.164062.242188-6.050781-.703124-8.710938-2.558593 11.019532-17.796875-7.207031-77.929688-9.335937-94.609375-4.152344-32.582032-14.449219-72.921875-4.023437-105.140625 8.65625-26.738281 65.78125-38.328125 42.011718-70.855469 6.007813 2.316406 10.839844 5.558594 14.148438 9.832031 24.53125 31.714844-30.925782 42.710938-39.238282 68.449219zm0 0" fill="#ffb3a8"/></svg>